<?xml version="1.0" standalone="no"?>
<!DOCTYPE svg PUBLIC "-//W3C//DTD SVG 20010904//EN"
 "http://www.w3.org/TR/2001/REC-SVG-20010904/DTD/svg10.dtd">
<svg version="1.0" xmlns="http://www.w3.org/2000/svg"
 width="1344.000000pt" height="768.000000pt" viewBox="0 0 1344.000000 768.000000"
 preserveAspectRatio="xMidYMid meet">
<metadata>
Created by potrace 1.16, written by Peter Selinger 2001-2019
</metadata>
<g transform="translate(0.000000,768.000000) scale(0.100000,-0.100000)"
fill="#000000" stroke="none">
<path d="M6085 5061 c-50 -23 -75 -51 -84 -93 -5 -23 -13 -34 -28 -36 -12 -2
-29 -14 -37 -28 -9 -13 -23 -24 -31 -24 -18 0 -35 -31 -35 -64 0 -17 -5 -26
-16 -26 -9 0 -34 -10 -55 -22 -21 -12 -42 -19 -45 -15 -4 4 0 25 9 47 12 32
13 40 2 40 -7 0 -21 -22 -29 -48 -13 -37 -23 -50 -46 -59 -17 -6 -34 -23 -41
-40 -14 -37 -29 -63 -61 -109 -36 -52 -44 -87 -24 -107 9 -8 14 -21 11 -29 -3
-7 -7 -49 -10 -93 -3 -44 -8 -97 -11 -117 -5 -31 -2 -43 20 -69 25 -30 32 -48
38 -99 2 -17 12 -27 33 -34 17 -6 32 -11 34 -13 2 -1 -7 -20 -20 -40 -14 -21
-65 -119 -114 -218 -70 -140 -101 -190 -138 -227 l-47 -47 28 -32 c24 -27 37
-32 92 -38 58 -6 169 -45 159 -55 -2 -3 -27 0 -54 5 -67 13 -151 3 -260 -32
-127 -40 -165 -45 -203 -25 -18 9 -32 22 -32 29 1 6 33 28 72 47 82 40 118 83
98 119 -28 53 -148 4 -190 -78 -21 -43 -67 -83 -114 -101 -45 -17 -55 -1 -58
98 -3 87 -3 87 -31 90 -34 4 -83 -25 -131 -78 -20 -22 -36 -38 -36 -34 0 11
74 184 146 340 41 88 74 168 74 177 0 30 -26 18 -44 -20 -64 -133 -256 -592
-256 -613 0 -26 33 -4 73 48 55 71 141 152 162 152 12 0 15 -14 15 -70 0 -128
35 -155 132 -102 38 21 58 27 58 18 0 -7 11 -23 25 -36 41 -38 102 -37 234 5
138 43 209 52 293 35 35 -6 66 -14 70 -16 4 -3 -2 -30 -13 -60 -10 -31 -19
-80 -20 -108 0 -65 8 -391 10 -391 2 0 4 -13 6 -28 7 -54 31 -77 80 -77 47 0
75 19 75 50 0 10 7 31 15 46 11 21 13 45 9 86 -4 36 -1 82 9 130 9 40 21 113
26 162 8 66 17 99 35 125 13 20 27 51 31 69 8 37 5 36 48 16 33 -16 34 -18 30
-63 -3 -25 -11 -68 -19 -95 -16 -58 -18 -152 -4 -226 7 -37 7 -80 -1 -142 -9
-67 -9 -92 0 -101 6 -6 11 -28 11 -48 0 -28 6 -42 22 -53 28 -20 88 -21 131
-3 18 8 50 17 72 21 98 19 149 73 109 117 -14 16 -28 19 -72 17 l-54 -3 -16
49 c-15 46 -14 53 9 150 13 55 24 126 25 156 2 128 5 160 14 160 5 0 32 -16
59 -35 123 -89 243 -113 342 -68 l45 20 11 -111 c6 -61 8 -129 5 -150 l-5 -39
38 6 c52 8 63 22 40 47 -17 19 -17 25 5 177 12 87 26 162 31 167 17 19 19 -2
3 -40 -14 -33 -15 -58 -9 -154 4 -63 7 -141 6 -172 l-1 -58 37 1 c55 1 87 13
91 31 2 12 -7 19 -32 24 -20 3 -36 11 -36 18 0 6 9 57 20 114 21 105 24 167
14 219 -5 25 -10 29 -30 25 -31 -6 -31 11 1 32 30 19 35 20 35 3 0 -20 33 -47
59 -47 34 0 99 37 145 84 41 40 44 42 63 27 12 -9 35 -24 52 -33 33 -18 41
-38 16 -38 -28 0 -123 -48 -134 -68 -15 -28 -15 -29 14 -48 22 -14 31 -15 69
-4 46 12 106 62 106 86 0 8 26 27 59 43 32 16 72 42 90 56 l31 27 0 -67 c0
-142 85 -214 241 -203 135 10 275 105 416 281 l54 67 30 -16 c80 -41 148 -145
172 -264 8 -42 18 -65 27 -65 8 0 27 45 51 125 21 69 49 157 62 195 l24 70 47
3 c57 4 58 25 2 30 -30 3 -37 7 -33 20 2 9 21 73 41 142 69 236 71 310 8 310
-62 0 -156 -99 -342 -362 -81 -115 -84 -118 -121 -118 -71 0 -92 -23 -39 -41
17 -6 30 -14 30 -18 0 -17 -137 -176 -188 -218 -209 -170 -452 -140 -452 56 0
81 20 150 67 239 l45 82 61 1 c203 4 252 9 252 21 0 10 -33 13 -148 12 -133
-1 -147 0 -142 15 25 59 44 125 39 132 -12 20 -26 6 -70 -70 l-46 -80 -52 -6
c-28 -3 -78 -6 -111 -8 -47 -1 -60 -6 -63 -19 -3 -15 7 -16 104 -11 103 6 107
5 100 -13 -4 -10 -16 -46 -27 -79 -24 -75 -92 -156 -159 -190 l-49 -25 -49 33
c-27 17 -58 37 -68 43 -18 11 -18 13 6 39 25 27 70 55 90 55 5 0 10 -11 10
-25 0 -28 15 -34 24 -9 11 29 6 53 -14 64 -27 14 -81 -11 -129 -61 -114 -118
-138 -139 -172 -155 -49 -22 -69 -14 -69 28 0 68 25 108 32 51 2 -20 9 -29 24
-31 28 -4 36 25 19 66 -8 17 -11 33 -8 35 2 3 -7 41 -22 84 -18 50 -28 103
-30 148 -1 39 -3 73 -4 77 -1 9 -57 39 -68 37 -24 -4 -21 4 11 35 31 29 36 39
36 81 0 40 -5 52 -34 81 -37 37 -70 43 -115 20 -51 -27 -67 -105 -31 -156 20
-29 20 -29 1 -39 -11 -6 -26 -11 -33 -11 -31 0 -51 -28 -59 -81 -4 -30 -13
-81 -18 -114 -9 -52 -8 -69 10 -125 12 -36 30 -73 41 -82 13 -12 17 -24 13
-38 -4 -12 -4 -39 0 -61 5 -30 13 -43 32 -50 13 -5 21 -14 18 -19 -5 -7 -11
-8 -19 -1 -8 7 -15 4 -24 -9 -33 -53 -170 -84 -258 -60 -26 7 -80 35 -120 61
l-74 48 44 63 c24 35 69 110 99 168 60 115 227 481 227 499 0 6 -8 11 -19 11
-14 0 -30 -29 -71 -127 -65 -157 -222 -479 -251 -513 l-21 -25 6 65 c15 187
38 395 43 400 3 3 3 -24 0 -60 l-6 -65 20 24 c14 17 16 26 9 31 -7 4 -10 19
-8 35 3 24 7 27 49 30 l47 3 -5 -42 c-6 -55 -22 -85 -55 -102 -43 -22 -54 -16
-25 14 27 28 37 84 18 97 -16 9 -24 -15 -10 -31 10 -12 7 -20 -14 -42 -48 -50
-27 -84 34 -54 48 25 67 71 74 183 6 101 -8 184 -40 232 -8 13 -18 49 -21 78
-3 30 -9 63 -14 74 -11 29 -30 136 -30 173 0 18 5 41 12 51 9 16 9 26 -4 53
-27 58 -50 132 -49 160 1 19 -10 36 -38 60 -30 26 -37 37 -31 53 5 11 11 50
15 88 4 37 12 70 16 73 26 16 -7 61 -65 87 -54 25 -79 27 -121 8z m124 -26
c44 -22 74 -55 51 -55 -6 0 -10 -16 -10 -35 0 -31 -18 -135 -25 -143 -2 -2
-40 24 -85 57 -45 34 -93 64 -106 67 -67 17 19 134 99 134 15 0 49 -11 76 -25z
m-81 -211 c45 -26 80 -50 78 -51 -1 -2 -17 2 -35 8 -52 18 -142 5 -203 -29
-38 -21 -59 -27 -73 -22 -11 5 -40 9 -64 9 -57 1 -42 22 21 30 42 6 43 7 43
45 0 35 3 40 35 52 58 22 109 12 198 -42z m87 -103 c79 -36 116 -110 120 -240
3 -102 14 -198 25 -226 4 -11 13 -49 20 -85 6 -36 17 -72 24 -80 7 -8 21 -45
30 -81 21 -79 12 -105 -42 -132 l-37 -17 -23 27 c-12 16 -28 46 -34 68 -7 22
-27 58 -46 80 -71 85 -122 246 -101 320 11 38 12 38 -5 32 -34 -13 -35 69 -1
141 14 30 25 59 25 65 -1 25 -40 -37 -56 -89 -17 -50 -17 -58 0 -134 17 -78
17 -81 -2 -108 -24 -32 -61 -67 -66 -61 -2 2 -16 42 -31 89 -24 72 -29 107
-33 228 -5 162 -5 162 73 198 60 28 106 30 160 5z m-300 -15 c49 -21 49 -49 1
-50 -21 -1 -37 -12 -60 -40 -117 -149 -109 -141 -157 -141 -36 0 -44 3 -44 18
0 10 -6 22 -14 26 -11 7 -8 20 13 67 32 69 59 101 101 120 40 18 117 17 160 0z
m20 -88 c-3 -13 -19 -79 -35 -148 -36 -148 -49 -285 -31 -328 15 -35 51 -56
85 -50 38 8 22 -8 -29 -28 -35 -13 -66 -16 -143 -12 -53 3 -107 10 -119 16
-12 7 -23 9 -26 4 -2 -4 -2 -1 0 6 1 8 3 23 3 35 0 20 4 22 52 19 85 -4 83 -7
80 182 l-4 165 62 80 c47 63 66 81 86 81 20 0 23 -4 19 -22z m46 -263 c7 -27
22 -80 35 -117 24 -71 19 -84 -24 -57 -13 8 -27 7 -56 -5 -21 -9 -43 -16 -48
-16 -20 0 -2 183 33 335 l34 149 7 -119 c4 -66 12 -142 19 -170z m-221 -51 l0
-144 -25 -12 c-17 -8 -37 -8 -63 -2 -36 9 -37 10 -46 71 -5 33 -5 100 -1 147
l7 85 56 3 c32 2 60 2 65 0 4 -2 7 -68 7 -148z m414 -169 c18 -39 46 -86 63
-105 52 -61 66 -125 58 -270 -9 -150 -39 -417 -48 -427 -4 -3 -18 -1 -32 5
-75 35 -165 -13 -165 -88 0 -27 27 -50 59 -50 15 0 48 13 74 30 l47 29 -6 -77
c-7 -102 -9 -121 -33 -232 -17 -75 -19 -101 -10 -127 13 -39 8 -49 -34 -68
-18 -7 -44 -22 -60 -32 -25 -16 -30 -17 -55 -2 -25 14 -27 19 -22 64 5 50 5
96 -1 270 -3 64 1 104 13 140 9 28 18 70 20 95 l3 45 -63 32 c-88 45 -137 50
-233 26 -43 -11 -83 -17 -89 -13 -7 5 -1 41 20 119 33 121 49 159 88 206 35
42 12 43 -55 2 -64 -39 -244 -137 -250 -137 -3 0 16 38 42 86 26 47 80 151
121 232 l75 147 107 0 c100 0 110 2 155 28 27 16 57 43 67 60 10 18 38 53 62
80 39 43 43 46 46 25 2 -13 18 -55 36 -93z m727 -121 c51 -54 20 -161 -43
-147 -67 15 -87 25 -98 53 -37 90 75 164 141 94z m1741 -49 c-2 -52 -24 -136
-74 -292 l-29 -93 -47 0 c-26 0 -92 -3 -146 -7 l-100 -6 59 84 c167 239 287
374 324 367 13 -3 15 -15 13 -53z m-1781 -141 c4 -2 5 -21 2 -43 -3 -25 0 -47
10 -62 27 -43 30 -69 12 -89 -17 -19 -18 -19 -56 0 -21 11 -51 20 -68 20 -24
0 -31 6 -40 31 -18 53 -14 116 10 140 18 18 28 20 72 15 28 -4 54 -9 58 -12z
m-1145 -171 c-13 -27 -36 -93 -51 -148 -15 -55 -29 -103 -31 -107 -3 -4 -28 4
-57 17 -32 15 -70 25 -99 25 -34 0 -54 6 -73 23 -26 22 -26 23 -8 39 15 14
331 197 341 198 1 0 -8 -21 -22 -47z m2767 -250 c-24 -76 -45 -142 -47 -147
-1 -5 -12 18 -25 52 -26 74 -71 134 -131 180 -25 19 -46 38 -48 43 -2 5 63 9
146 9 l150 0 -45 -137z m-2574 -20 c21 -5 23 -10 18 -50 -3 -26 -14 -54 -27
-68 -17 -18 -24 -45 -35 -134 -8 -61 -19 -128 -24 -148 -6 -21 -11 -72 -11
-113 0 -41 -4 -81 -8 -87 -6 -9 -31 -12 -80 -10 -84 2 -87 6 -72 87 7 39 7 90
-2 176 -10 108 -10 128 6 185 26 97 23 95 98 74 73 -19 111 -17 116 7 4 22
-43 36 -142 43 -79 5 -115 14 -60 16 16 0 45 7 64 14 37 14 120 19 159 8z
m995 -129 c10 -25 7 -53 -15 -171 -14 -77 -25 -113 -34 -113 -18 0 -22 18 -30
120 -9 105 5 167 38 173 12 2 25 5 28 6 4 0 10 -6 13 -15z m-583 -504 c45 -25
1 -80 -76 -95 -16 -4 -57 -15 -90 -26 -83 -26 -119 -17 -123 34 l-3 37 39 -6
c42 -6 71 4 109 38 15 14 29 19 47 14 13 -3 35 -2 48 3 30 13 26 13 49 1z"/>
<path d="M4705 4049 c-44 -4 -187 -21 -319 -38 -131 -17 -242 -31 -247 -31 -5
0 -9 -10 -9 -21 0 -18 4 -21 28 -16 85 16 453 60 458 54 4 -4 -7 -38 -25 -76
-17 -38 -54 -124 -81 -191 -60 -149 -94 -203 -172 -275 -92 -86 -187 -127
-374 -162 -86 -16 -152 -18 -509 -18 -439 1 -446 1 -1270 75 -797 71 -849 74
-1275 74 -358 0 -408 -2 -535 -22 -206 -32 -375 -84 -375 -115 0 -9 29 -4 98
19 227 76 353 89 832 89 425 -1 489 -5 1270 -75 716 -65 820 -71 1190 -77 363
-6 481 1 638 33 109 22 219 67 277 113 28 22 62 49 76 60 l25 20 -37 -113
c-46 -138 -58 -206 -37 -206 10 0 23 32 42 103 34 126 102 311 151 407 20 40
61 134 90 209 63 160 40 146 266 157 105 5 148 3 153 -5 4 -6 16 -11 27 -11
23 0 26 35 3 44 -21 8 -259 5 -359 -5z"/>
<path d="M9136 3781 c-50 -87 -56 -91 -157 -91 -83 0 -131 -9 -126 -24 3 -7
38 -10 110 -7 68 2 107 0 107 -7 0 -5 -13 -42 -29 -81 -39 -97 -132 -210 -204
-247 -58 -31 -62 9 -12 108 20 38 33 73 30 78 -4 6 -21 4 -42 -5 -49 -21 -53
-20 -51 20 1 19 -2 38 -6 42 -14 14 -41 -15 -49 -53 -12 -54 -32 -93 -73 -138
-24 -27 -32 -42 -25 -49 14 -14 40 10 87 79 33 47 42 54 71 54 18 0 33 -2 33
-5 0 -3 -9 -23 -20 -45 -29 -56 -27 -107 5 -122 35 -16 76 4 151 75 l63 59 -6
-51 c-8 -68 18 -136 61 -162 62 -38 115 -23 294 84 236 140 457 182 967 181
337 0 463 -7 1060 -54 897 -71 1171 -86 1435 -76 258 9 419 33 558 82 55 20
72 30 72 45 0 18 -2 19 -29 4 -51 -26 -197 -64 -318 -82 -93 -13 -185 -17
-433 -17 -334 0 -427 5 -1105 59 -739 59 -903 68 -1245 69 -534 0 -723 -38
-1012 -204 -134 -77 -178 -91 -217 -69 -84 47 -76 186 19 357 l45 81 155 3
c143 3 155 4 158 22 4 18 -2 19 -147 13 -83 -4 -151 -5 -151 -4 0 2 12 32 26
67 24 60 26 90 5 90 -5 0 -30 -35 -55 -79z"/>
</g>
</svg>
